<svg xmlns="http://www.w3.org/2000/svg" version="1.1" xmlns:xlink="http://www.w3.org/1999/xlink" xmlns:svgjs="http://svgjs.dev/svgjs" width="1000" height="1000" viewBox="0 0 1000 1000"><rect width="1000" height="1000" fill="#ffffff"></rect><g transform="matrix(0.7,0,0,0.7,150.0000000000001,106.25)"><svg viewBox="0 0 320 360" data-background-color="#ffffff" preserveAspectRatio="xMidYMid meet" height="1125" width="1000" xmlns="http://www.w3.org/2000/svg" xmlns:xlink="http://www.w3.org/1999/xlink"><g id="tight-bounds" transform="matrix(1,0,0,1,-5.684341886080802e-14,0)"><svg viewBox="0 0 320 360" height="360" width="320"><g><svg></svg></g><g><svg viewBox="0 0 320 360" height="360" width="320"><g><path xmlns="http://www.w3.org/2000/svg" d="M85.508 32.884c0-1.117 0.558-2.233 1.675-2.233 1.117 0 2.233 0.558 2.234 2.233 0.558 0 1.675 0 2.233-0.558 2.233 0 4.467-0.558 6.141 0 1.675 0.558 2.792 0.558 4.467 1.117 1.675 0.558 2.792 0 3.908-0.559 2.233-0.558 3.908-1.675 6.141-2.233 1.117-0.558 1.675-0.558 2.792-0.558 1.117-0.558 2.233-0.558 3.908-1.117 2.792-0.558 5.583-1.117 7.817-2.233 2.233-1.117 4.467-1.117 6.699-1.675 1.117 0 1.675-0.558 2.792-1.117 0.558 0 0.558-0.558 1.116-1.116 1.117-0.558 1.675-1.117 2.792-0.559 0.558 0.558 1.675 0.558 2.233 0h0.559c3.35 0 6.7-0.558 10.608 0 0.558 0 1.117 0 1.116 0 1.675-1.117 3.908-1.117 6.142-1.116 0.558 0 1.675 0 2.233 0h0.558c2.233 0 4.467 0 6.142 0.558 1.675 0 2.792 0.558 4.466 1.117 1.675 0 2.792 0 4.467 0.558 1.117 0 2.233 0 3.35 0 0.558 0 1.117 0 1.116 0 2.233 0.558 4.467 0.558 6.7 0.558 1.675 0.558 3.35 1.117 5.583 1.117 0.558 0 1.117 0 1.675 0 0.558 0 1.117 0.558 1.675 0.558l0.558 0.559c2.233 0 3.908 1.117 6.142 1.116 0.558 0 1.675 0 2.233 0.559 1.675 1.117 3.908 1.675 6.141 1.675 1.117 0 1.675 0.558 2.234 1.116 1.675 0.558 2.792 1.117 4.466 1.675 1.117 0.558 2.233 0 3.35 0.558 1.675 0.558 3.908 1.117 5.583 2.792 1.117 1.117 2.233 1.117 3.908 2.233 0.558 0 1.117 0.558 1.675 1.117 1.675 1.117 3.35 2.233 5.025 2.791 0.558 0 1.117 0.558 1.675 0.559 1.675 1.117 3.35 2.792 5.583 3.908 1.117 0.558 1.675 1.117 2.792 1.675h0.558c1.675 1.675 3.908 2.792 5.583 4.466 1.675 1.675 2.792 2.792 5.025 3.909 0 0 0 0 0 0.558 0.558 1.117 1.117 1.675 2.233 2.233 1.117 0.558 1.675 1.117 2.234 1.675 1.675 1.117 3.35 2.233 4.466 3.35 0.558 0.558 1.117 1.117 2.233 2.233 0.558 0.558 1.117 1.117 1.675 1.117 2.233 0.558 3.35 2.233 5.025 3.908 1.117 1.117 2.792 2.792 3.908 3.908 0.558 0.558 1.117 1.675 1.675 2.792 1.117 3.35 2.792 6.7 4.467 9.491 0 0 0 0.558 0.558 1.117v0.558c1.117 1.117 1.675 2.792 2.792 3.908 0.558 0.558 0.558 1.117 1.116 1.675 1.117 1.675 1.675 3.908 2.792 5.583 1.675 2.792 2.792 5.583 3.908 8.375v0.558c0.558 1.117 1.117 2.233 1.675 3.908 0 1.117 1.117 2.233 1.675 3.909 0.558 2.792 2.233 5.583 2.791 8.933 0 0.558 0.558 1.117 0.559 2.233 0.558 1.675 1.117 3.35 1.675 5.025 0 0.558 0.558 1.117 1.116 1.675 1.117 1.117 1.117 2.233 1.117 3.35-0.558 2.233 0 4.467 0.558 6.699 0 0.558 0 1.117 0 2.234 0.558 2.233 1.117 5.025 1.117 7.258 0 0.558 0 1.675 0 2.233 0 1.675 0.558 3.35 1.675 5.025 0 0.558 0.558 0.558 0.558 0.558 0.558 0.558 1.117 1.675 1.675 2.233 0.558 0.558 0.558 0.558 1.117 1.117 1.117 1.117 1.675 2.233 1.675 3.908 0 0.558-0.558 1.675-0.559 2.233 0 0.558 0 1.675 0.559 2.234 0.558 0.558 0.558 1.117 0.558 1.675 0 0.558-0.558 1.117-1.117 1.116v0c-0.558 1.675-2.792 2.233-3.35 3.908-0.558 2.233-1.117 4.467-1.674 6.7-0.558 1.675-0.558 2.792-0.559 4.467 0 1.675-0.558 2.792-0.558 4.466-0.558 2.233-1.117 4.467-1.675 6.7 0 1.117-0.558 2.233-0.558 3.35 0.558 0.558 1.117 1.117 1.675 1.116 1.117 1.117 2.233 2.233 3.349 3.35 0.558 0.558 0.558 1.117 0 1.117-0.558 0.558-1.117 0.558-1.674 0.558-0.558-0.558-1.675-1.117-2.234-1.116-0.558-0.558-1.675-1.117-2.791-0.559 0 1.117-0.558 2.233-0.559 2.792-0.558 1.117-1.117 2.792-1.116 3.908-0.558 2.233-1.675 3.908-2.233 6.142-1.117 2.792-2.233 5.025-3.35 7.258-0.558 1.117-1.117 2.233-1.675 3.35v0c0 1.675-1.675 3.35-2.234 5.024-1.117 2.233-2.233 4.467-3.349 7.258-0.558 1.117-1.117 2.233-1.675 2.792-1.117 2.792-2.233 5.025-3.909 7.258-1.117 1.675-2.233 2.792-3.349 3.35-1.117 1.117-2.233 2.233-3.35 3.35-0.558 0.558-1.117 1.117-1.675 1.675-0.558 0.558-0.558 0.558-1.117 1.116-1.117 1.675-2.792 2.792-3.908 4.467-1.117 1.117-1.675 2.233-3.35 3.35-1.117 1.117-2.233 2.792-3.908 3.35-0.558 0.558-1.117 1.675-1.675 2.233-0.558 0.558-1.117 1.675-1.675 2.233 0 1.117 0.558 2.233 0.558 2.792 0 1.675-1.675 2.233-2.791 1.116-1.675-1.117-1.675-1.117-3.35 0-1.675 1.117-3.35 2.792-5.583 3.35-0.558 0-0.558 0.558-1.117 0.559-1.117 0.558-1.675 1.675-2.792 2.233-1.117 1.117-2.792 1.675-3.908 2.791-0.558 0.558-1.117 0.558-1.675 1.117-1.675 1.117-3.35 1.675-5.024 3.35-0.558 0.558-1.117 0.558-1.675 1.117 0 0.558 0 0.558 0 1.116 0 1.117-1.117 2.233-2.792 1.675-1.675-0.558-2.792 0-4.466 0-1.675 0.558-3.35 1.675-5.025 2.233-0.558 0-1.117 0.558-1.675 1.117-1.675 1.117-3.35 1.675-5.025 2.233-1.117 0-2.233 1.117-3.35 1.117-0.558 0-1.117 0.558-1.675 0.558h-0.558c-2.233 1.675-4.467 2.792-6.7 4.467-0.558 0-0.558 0.558-1.117 1.116-0.558 1.117-1.117 1.675-2.233 1.675-2.792 0-3.908 2.233-3.35 4.467 0 0.558 0.558 1.117 0.559 1.675 0.558 1.117 0 2.233-0.559 2.791-0.558 0.558-2.233 0.558-2.791-0.558-1.117-1.117-1.675-2.233-2.234-3.908-0.558-1.117-1.675-2.233-2.791-2.792-1.117-0.558-2.233-0.558-3.35 0-0.558 0-0.558 0.558-1.117 0.558-1.117 1.117-2.792 1.675-4.466 1.117-0.558 0-1.675 0-1.675 0.558-0.558 0.558-0.558 1.675 0 2.234 1.117 1.117 0.558 2.233 0.558 3.908 0 2.233-1.675 3.35-3.908 2.233-0.558-0.558-1.117-0.558-1.675-1.117-0.558 0-0.558-0.558-0.558-1.116-0.558-0.558-0.558-1.675-1.117-2.792-1.117 0.558-2.233 0.558-3.35 1.117-0.558 0-1.117 0.558-1.675 0.558-1.675 0-2.233 0-2.791-1.675-0.558-1.675-1.675-1.675-2.792-2.233-2.233-0.558-5.025-0.558-7.258-1.675h-0.558c-2.233-1.675-4.467-1.675-7.258-1.675-1.675 0-3.35 0.558-5.025 0.558-1.675 0-2.792 0.558-3.908 1.675-0.558 0.558-1.117 1.117-1.675 1.117-0.558-0.558-0.558-1.117-1.117-1.675v-0.558c0-0.558-0.558-1.117-1.116-0.559-1.117 0.558-2.233-0.558-3.35-1.116-0.558-0.558-1.675-1.675-1.675-2.792-0.558-0.558-1.117-1.117-1.675-1.116-1.117 0-2.792-0.558-3.908-0.559-0.558 0-1.117 0-1.117-0.558-0.558-0.558-1.117-0.558-2.233-0.558-0.558 0-0.558-0.558-1.117-0.559 1.117 1.117 1.675 2.233 2.233 3.35 0 0.558 0.558 0.558 0.559 1.117 0.558 1.117 0 1.675-1.675 1.675-1.117 0-1.117 0-1.675 0.558 0 1.117 0 1.675 0 2.792 0 0.558 0 1.117-1.117 1.675 0 0-0.558 0-0.558 0.558-0.558 0.558-0.558 1.117 0 1.675 1.675 1.117 2.792 1.675 4.466 2.233 1.675 0 1.675 1.117 2.234 2.233 0.558 1.117 0 1.675-0.559 2.792-1.117 1.117-2.233 2.233-3.35 3.35-1.675 0.558-2.792 2.233-4.466 2.233-1.117 0-2.233-0.558-2.792-1.675-0.558-2.792-0.558-5.025 0.559-7.816 0-0.558 0.558-1.117 0-1.675-5.025 0-5.025-1.117-5.025-1.675 0-1.117 0.558-1.675 0.558-2.792 0.558-1.117 0-1.675-1.675-2.233-0.558 0-1.117 0-1.675 0-0.558 0-0.558-0.558-1.675-0.558 1.117-0.558 1.675-0.558 2.792-1.117-0.558-2.233-1.117-3.908-2.792-5.025-0.558-0.558-1.117-1.117-1.116-2.233 0-1.675-1.117-2.792-1.675-3.908-1.117-1.675-3.35-2.233-5.025-2.233-1.675-0.558-2.792-0.558-4.467-1.117-1.675-0.558-3.35-2.233-5.024-2.792-0.558-0.558-1.117-1.117-2.234-1.674-2.233-1.117-3.908-2.792-5.583-4.467-1.117-0.558-1.675-1.675-2.791-2.233-1.117-1.117-1.675-2.233-2.792-2.792-1.117-1.117-2.233-2.233-3.908-3.35-1.675-1.117-2.792-2.792-4.467-4.466-1.117-1.675-2.792-2.792-4.466-3.908-0.558 0-1.117 0-1.675 0-0.558 0-1.117 0.558-1.675 0.558-1.675 0.558-2.792 1.675-4.467 2.233 0.558-0.558 0.558-0.558 0-1.675-0.558-0.558-1.117-1.117-1.674-1.116-1.117 0-2.233 0-3.35 0-2.233 0-4.467 0.558-6.7 0.558-1.675 0-3.908 0.558-5.583 1.117 0.558 1.117 0.558 1.675 1.116 2.791-1.117 0.558-2.233 0.558-3.35 0.558-0.558 0-1.675 0.558-2.233 1.117-0.558 0-0.558 0.558-1.116 0-1.117-0.558-2.233 0-3.35 0.558h-0.559c0 0 0-0.558 0.559-0.558 0.558-0.558 1.117-1.117 1.675-1.675 0.558-0.558 1.117-0.558 2.233-1.117-0.558-0.558-0.558-1.117-0.558-1.116-0.558-0.558-1.117-0.558-1.675 0-0.558 0.558-1.117 1.117-1.675 1.675-0.558 0.558-1.117 0.558-1.675 0-0.558-0.558-0.558-1.117 0-1.675 0-0.558 0.558-1.117 1.116-1.675 0.558-0.558 0.558-1.117 1.117-1.675-1.117-1.117-1.675-2.233-2.792-2.792-1.675-1.117-3.35-2.792-4.466-4.466-1.117-2.233-2.792-3.908-5.025-5.025-0.558-0.558-1.117-1.117-1.675-1.675-0.558-0.558-0.558-0.558-1.116-1.117-1.675 0.558-2.792 1.675-4.467 2.234-0.558 0-0.558 0.558-1.117 1.116-0.558 1.117-1.675 1.117-2.791 1.117-0.558 0-1.117-0.558-0.558-1.117 0.558-1.117 1.117-2.233 2.791-1.675 0 0 0.558 0 0.558-0.558 1.117-1.117 2.233-2.792 3.909-3.908-0.558-1.675-1.675-2.792-2.234-3.908-0.558-0.558-0.558-1.117-0.558-2.234 0-0.558 0-0.558-0.558-1.116 0 0-0.558 0-1.117 0.558-0.558 0.558-1.675 1.117-2.791 0 0-0.558 0-1.117 0.558-1.675l0.558-0.558c1.675-0.558 1.675-2.233 1.675-3.908v-0.559c-0.558-1.117-0.558-1.675 0.558-2.791 1.675-1.117 3.35-3.35 3.909-5.025 0.558-1.117 1.675-1.675 2.791-2.792 1.117-1.117 2.233-2.233 2.792-3.908h0.558c2.233 0.558 2.792-1.117 3.908-2.791 0-0.558 0-1.117 0.559-1.117 1.117-1.117 1.117-2.233 0.558-3.908 0-0.558-0.558-1.675-0.558-2.233 0-0.558 0-0.558-0.559-1.117-1.675-1.117-1.675-2.233 0-3.35 1.117-0.558 1.117-1.675 1.675-2.233 0.558-1.117 0.558-2.233 0.559-3.908-0.558-1.675-0.558-3.908-1.117-5.583-0.558-2.233-1.117-5.025-1.675-7.259 0-0.558 0-0.558 0-1.116 0-1.675 0-2.792-0.558-4.467-0.558-0.558-0.558-1.675-0.559-2.233-0.558-1.675-1.117-2.792-2.791-3.35-1.675-1.117-3.908-1.675-5.583-2.791-0.558-0.558-1.117 0-1.675 0.558-0.558 1.117-1.675 2.233-2.234 3.35-0.558 0.558-1.117 1.675-1.675 2.791-1.117 1.117-3.35 2.233-5.024 0.559-0.558-1.117-1.117-1.675 0-2.792 1.117-1.675 2.233-3.35 3.908-4.466 0.558-0.558 1.117-1.675 1.675-2.234 0.558-1.117 0.558-2.233 0.558-3.35-0.558-2.233-1.117-4.467-1.117-7.258 0-2.792 0-5.025 0.559-7.816 0.558-1.117 0.558-2.792 1.116-3.908 0-0.558 0.558-1.675 1.117-2.233 1.117-1.117 2.233-2.233 2.792-3.909 0.558-1.675 1.675-3.35 1.675-5.024 0-0.558 0.558-1.117 0.558-1.675 0-0.558 0.558-1.675 0.558-2.234-0.558-1.675 0-2.792 0.558-3.908 0.558-1.117 1.117-2.792 1.675-3.908 1.117-2.233 1.117-5.025 3.35-7.258 0.558-1.117 1.117-2.233 1.675-3.35 0.558-2.233 1.675-3.908 2.792-5.583 0.558-0.558 0.558-0.558 0.558-1.117 0.558-1.675 1.675-3.35 2.792-5.025 1.117-1.675 1.117-3.35 1.675-5.024 0-0.558 0-1.117 0.558-1.675 1.675-1.675 1.117-3.908 0.558-6.142-1.117-2.792-1.675-5.583-1.116-8.374 0-0.558 0-1.117 0.558-1.117 0.558-1.117 0.558-1.675 1.117-2.792v-0.558c1.117-1.117 2.233-2.792 3.908-3.35 2.233-1.117 4.467-1.675 7.258-2.233 2.233 0 4.467-1.117 6.141-3.35 0-0.558 0.558-0.558 1.117-1.117l0.558-0.558c0.558-1.117 1.117-1.675 1.675-2.233 1.117-1.117 2.233-2.792 3.35-3.908 1.117-1.117 2.233-2.792 3.908-4.467l0.559-0.558c1.117-1.117 2.233-2.233 3.349-2.792 1.117-1.117 2.233-2.233 3.35-3.35 1.117-1.117 1.675-2.233 2.792-3.35 1.117-0.558 2.233-1.675 3.35-2.791 1.117-1.117 2.233-2.233 2.791-2.792 1.117-1.117 2.792-2.233 3.909-2.791 1.117-0.558 2.233-1.117 2.791-2.792 0.558-1.675 1.117-2.792 1.675-4.466 0-1.117 0.558-2.233 1.117-3.35 0.558 0 1.117 0 2.233-0.558-0.558-0.558-1.117-0.558-1.117-1.117 0-0.558 0.558-1.117 0.559-1.117 0-0.558 0.558-1.117 0.558-1.675 0 0 0.558 0 0.558-0.558 0 0 0.558 0 0.559-0.558-1.117 0.558-1.675 0-2.234-0.559 0.558 0.558 1.117 0.558 2.234 1.117 0 0 0.558 0 0.558-0.558 0-0.558 0-1.117 0-1.117 0 0-0.558 0-1.117 0-0.558 0-1.117 0.558-1.675 0.558zM182.097 295.292c0-0.558-0.558-0.558-0.559-1.117-0.558-1.117 0-1.675 0.559-2.233 0.558-0.558 1.117-0.558 2.233-0.558 1.117 0.558 1.675 1.117 1.675 2.233 0 0.558 0 1.675 0 2.233 0.558 2.233 0.558 2.233 2.791 2.233 1.117 0 2.233 0 3.35 0 2.233-0.558 4.467-1.675 6.7-2.233 2.233-0.558 4.467-1.117 6.7-1.675 0.558 0 1.117 0 2.233 0 2.233 0.558 3.908 0 5.583-1.117 0.558-0.558 1.675-0.558 2.233-1.116 1.117-0.558 2.233-0.558 3.35-1.117 2.792-1.675 5.583-2.792 7.817-4.466 1.675-1.117 3.35-2.233 5.024-3.35 1.675-1.117 3.35-2.233 5.025-3.35 1.117-0.558 2.792-1.675 3.908-2.792 2.233-1.675 3.908-3.35 6.142-4.466 1.117-0.558 1.675-1.117 2.233-1.675 1.117-0.558 1.675-1.675 2.792-2.233 0.558-0.558 1.117-1.117 2.233-1.675 0.558-0.558 0.558-0.558 0.558-1.117 1.675-1.117 3.35-3.35 4.467-5.025 1.117-1.117 2.233-2.233 3.35-3.908 1.675-1.675 2.792-3.908 4.466-6.141 1.117-1.117 2.233-2.792 2.792-3.909 1.117-2.233 2.233-4.467 3.908-6.141v-0.558c1.117-2.233 2.233-4.467 3.35-6.7 1.675-2.792 2.792-6.141 4.466-8.933 0.558-1.117 1.117-2.233 1.117-3.35 1.117-2.233 1.675-4.467 2.233-6.7 0-0.558 0-0.558 0.559-1.116 1.675-3.35 2.792-6.7 3.349-10.608 0.558-2.233 1.117-4.467 1.675-6.7 1.117-3.35 1.117-6.141 1.675-9.491 0.558-2.233 0.558-5.025 0.559-7.258 0.558-3.35 0.558-7.258 0-10.608 0-2.792-0.558-6.141-0.559-8.933 0-2.792-0.558-5.025-1.116-7.817-0.558-2.792-1.117-5.025-1.675-7.816-1.117-2.233-1.675-4.467-2.234-7.258-0.558-2.233-1.675-3.908-1.674-6.142 0-1.675-0.558-3.35-2.234-3.908-1.675-0.558-2.792-1.117-4.466-2.233-3.35-2.233-5.025-5.025-4.467-8.375 0-1.675 0.558-3.908 1.117-5.583 0.558-1.675 1.117-3.35 0-4.467-0.558-1.675-1.675-2.792-2.233-3.908-1.117-1.675-1.675-2.792-2.792-3.908-1.117-2.233-2.233-4.467-3.908-6.141-2.233-2.792-3.908-5.583-6.7-7.817l-0.558-0.558c-1.675-2.233-3.35-4.467-5.583-6.142-1.117-1.117-2.233-2.233-3.35-2.791-0.558-0.558-1.117-1.117-2.233-1.675-1.675-1.117-3.35-1.675-4.467-2.792-1.675-1.675-3.908-2.792-5.583-3.908 0 0-0.558 0-0.558-0.558-2.233-1.117-3.908-1.675-6.142-2.792-2.233-1.117-4.467-1.675-6.7-1.675-0.558 0-0.558 0-1.116 0-0.558-0.558-1.675-0.558-2.233-0.558-0.558 0-0.558 0-1.117 0-1.117-0.558-2.792 0-3.908 0-2.233 0.558-4.467 0.558-6.7-0.558-2.792-1.117-5.025-2.233-7.258-3.35-1.675-1.117-2.792-2.233-4.467-3.35-3.35-2.792-6.7-6.141-10.608-8.933 0.558-2.792-0.558-3.35-2.791-3.35-1.117 0-2.233 0.558-3.35 1.117-0.558 0.558-0.558 0.558-1.117 1.116-1.675 1.117-2.792 2.792-4.466 3.909-2.792 1.675-3.908 1.117-6.142 0-0.558-0.558-1.117-1.117-1.675-1.675-1.117-1.117-2.233-2.792-2.791-3.909-1.117-2.233-3.35-2.233-5.583-2.233-1.117 0-2.792 0.558-3.908 0.558-2.233 0-4.467 1.117-5.584 2.792-1.117 1.675-2.233 3.35-3.908 5.025-0.558 0.558-1.675 1.117-2.233 2.233-1.117 1.117-2.233 1.117-3.35 0-0.558-0.558-1.117-0.558-1.675-1.117-0.558 0.558-1.117 1.117-1.117 1.675-0.558 1.117-1.117 2.233-1.674 3.909-0.558 1.675-1.675 3.35-2.792 4.466-0.558 0.558-0.558 0.558-1.117 1.117-0.558 1.117-2.233 1.675-3.35 1.675-1.117 1.117-2.233 2.792-2.791 3.908-0.558 1.117-1.117 2.233-1.675 3.908-0.558 0.558-0.558 1.675-1.117 2.233-0.558 1.117-0.558 1.675-0.558 2.792 0.558 1.675-0.558 2.233-2.233 2.791-1.117 0-1.117 0-1.675 1.117 0 1.675 0.558 2.792 1.116 4.467 0.558 0.558 1.117 1.675 1.117 2.233 0 1.117 0.558 1.675 1.675 2.233 0.558 0.558 1.117 1.117 1.675 1.117 0.558 0 0.558 0.558 1.117 0.558 0.558 0.558 1.117 0 1.116-0.558 0.558-1.675 1.117-3.35 1.117-5.025 0.558-2.233 0.558-3.908 1.116-6.142 0.558-1.117 1.117-1.675 1.675-2.233 0 0 0.558 0 1.117 0v0.559c-0.558 2.792-1.675 6.141-2.233 8.933-0.558 1.117-0.558 2.233-1.117 3.349 0 0.558-0.558 1.117-1.116 1.117-1.117 0.558-2.233 1.117-3.35 1.117-0.558 0-1.117 0-1.675 0-1.117-0.558-2.233-1.675-3.35-2.234-0.558-0.558-1.117-1.117-1.675-1.674-0.558-1.117-1.117-2.233-1.675-3.35-0.558-1.117-1.117-1.675-2.233-2.234-0.558-0.558-1.117-0.558-1.675-1.116-1.117-1.117-2.233-1.675-3.908-1.675-0.558 0-1.675 0-2.234 0-0.558 0-1.675 0.558-2.233 1.116-1.117 0.558-1.675 0.558-2.791 0-2.792-1.117-5.583-0.558-8.375 0.559-1.117 0.558-2.233 1.117-3.35 1.116-2.792 0-5.025 0-7.816 0-2.792 0-5.025-0.558-7.817-1.116-1.117 0-2.233 0-3.35 0-2.233 0.558-2.792 2.233-2.233 4.466 0.558 2.233 1.117 5.025 1.117 7.258 0 1.675 0 3.35 0 5.025 0 1.117 0 1.675 0 2.792 0 1.675-0.558 3.35-0.559 5.025-0.558 3.35-2.233 6.141-4.466 8.374-1.675 1.675-3.908 3.35-6.142 3.908-1.117 0.558-2.233 1.117-3.908 1.675-2.792 1.117-5.025 3.35-6.7 6.142-0.558 1.117-1.117 2.233-1.674 3.35-1.117 1.675-1.675 2.792-2.792 4.466-0.558 1.117-1.675 2.233-2.233 3.35-0.558 1.117-1.675 1.675-1.675 2.792-1.117 2.233-1.675 4.467-2.792 6.699-0.558 1.117-0.558 2.792-1.116 3.909-1.117 2.233-1.117 4.467-1.117 7.258 0 0.558 0 1.117 0 2.233 0 2.792-0.558 6.141-0.558 8.933 0 2.792 0 5.583 0.558 8.375 0 1.117 0 2.792 0 3.908 0 2.233 0.558 5.025 0.558 7.258 0 2.233 0 5.025 1.117 7.258v0.558c0.558 2.233 0.558 4.467 1.116 6.7 0 0.558 0 1.117 0.559 1.675 1.117 3.35 1.675 6.141 2.791 9.491 0.558 2.233 1.675 4.467 2.234 6.7 0.558 2.233 2.792 4.467 3.349 7.258v0c1.675 3.35 3.35 6.7 5.584 10.05 0.558 1.117 1.675 2.233 2.233 3.35 1.117 1.675 1.675 3.35 2.791 4.466 0.558 1.117 1.675 2.233 2.234 2.792 0.558 1.117 1.117 2.233 2.233 3.35 1.117 1.117 2.233 2.792 3.35 3.908 1.675 2.792 3.908 5.025 6.141 6.7 1.117 1.117 2.233 1.675 3.35 2.791 0.558 0.558 1.117 0.558 1.117 1.117 0.558 0.558 1.117 1.117 2.233 1.675 4.467 2.233 7.816 5.583 11.725 8.933 1.675 1.675 3.35 3.35 5.583 4.466 2.233 1.675 3.908 3.35 6.7 3.908 0 0 0.558 0 0.558 0.559 1.117 1.117 2.792 1.675 3.908 2.233 2.233 1.117 5.025 2.233 7.258 3.35 0.558 0.558 1.675 0.558 2.233 1.117 1.675 0.558 3.35 1.117 5.025 1.674 1.675 0.558 2.792 1.117 4.467 1.117h0.558c1.117 0.558 1.675 0.558 2.792 0 0.558 0 1.117 0 1.116 0.558 0 0.558 0.558 0.558 1.117 0.559 0.558 0 1.117 0 2.233 0 0.558-0.558 0.558-1.117 1.117-2.234 0.558 0.558 1.117 0.558 1.116 0.559 0.558 1.117 1.675 1.117 2.792 1.116h0.558c1.117 0 1.675 0 2.233-0.558 0-0.558 1.117-0.558 1.675-0.558 1.675 0.558 3.35 0.558 5.025 1.116 1.117 0.558 2.792 0.558 3.35-0.558 0.558-0.558 1.117-1.117 2.233-0.558 1.117 0.558 1.675 0.558 2.792 0 0.558 0 1.117 0 1.117 0 1.675 0.558 2.792 0.558 4.466 1.116 2.233 0.558 2.233 0.558 3.908-1.116 0.558-0.558 1.675-0.558 2.233 0 0.558 1.117 0.558 1.675 0.559 2.791 0.558 0 0.558 0 1.116-0.558 0-1.117 0.558-1.117 1.675-1.675 0.558 0.558 0.558 0.558 1.117 0.558 1.117 1.117 1.675 1.117 2.233-0.558 0-0.558 0-1.117 0.559-1.116 0.558 0 1.117 0.558 1.116 0.558 0.558 1.117 1.675 1.675 2.233 2.791 1.117 1.117 2.792 1.117 3.35 0 0.558-0.558 1.117-0.558 1.675-0.558 0-0.558 0-1.117 0-1.675 1.675 1.117 1.117 1.117 0.559 1.117zM89.417 34.559c1.675 0.558 2.792 0.558 3.349-0.558-1.117 0.558-2.233-0.558-3.349 0.558z" fill="#f52222" fill-rule="nonzero" stroke="none" stroke-width="1" stroke-linecap="butt" stroke-linejoin="miter" stroke-miterlimit="10" stroke-dasharray="" stroke-dashoffset="0" font-family="none" font-weight="none" font-size="none" text-anchor="none" style="mix-blend-mode: normal" data-fill-palette-color="tertiary"></path></g><g transform="matrix(1,0,0,1,64,111.95455276236714)"><svg viewBox="0 0 192 136.0908944752657" height="136.0908944752657" width="192"><g><svg viewBox="0 0 192 136.0908944752657" height="136.0908944752657" width="192"><g><svg viewBox="0 0 192 136.0908944752657" height="136.0908944752657" width="192"><g transform="matrix(1,0,0,1,0,80.87548973427663)"><svg viewBox="0 0 192 55.2154047409891" height="55.2154047409891" width="192"><g><svg viewBox="0 0 192 55.2154047409891" height="55.2154047409891" width="192"><g><svg viewBox="0 0 192 31.30259849119866" height="31.30259849119866" width="192"><g transform="matrix(1,0,0,1,0,0)"><svg width="192" viewBox="3.8299999237060547 -37.5 232.99000549316406 37.9900016784668" height="31.30259849119866" data-palette-color="#163eb1"><path d="M27.1-35.55L27.1 0 22.61 0 22.61-16.43 8.3-16.43 8.3 0 3.83 0 3.83-35.55 8.3-35.55 8.3-20.26 22.61-20.26 22.61-35.55 27.1-35.55ZM33.32-11.55L33.32-14.43Q33.32-20.19 36.12-23.55 38.91-26.9 43.5-26.9 48.09-26.9 50.89-23.63 53.68-20.36 53.76-14.72L53.76-14.72 53.76-11.94Q53.76-6.2 50.97-2.86 48.19 0.49 43.55 0.49L43.55 0.49Q38.96 0.49 36.19-2.76 33.42-6.01 33.32-11.55L33.32-11.55ZM37.64-14.45L37.64-11.94Q37.64-7.86 39.24-5.53 40.84-3.2 43.55-3.2L43.55-3.2Q49.27-3.2 49.44-11.45L49.44-11.45 49.44-14.43Q49.44-18.48 47.82-20.84 46.21-23.19 43.5-23.19L43.5-23.19Q40.84-23.19 39.24-20.84 37.64-18.48 37.64-14.45L37.64-14.45ZM59.35-26.42L63.4-26.42 63.5-23.97Q65.91-26.9 69.87-26.9L69.87-26.9Q74.29-26.9 76.04-23.07L76.04-23.07Q78.54-26.9 82.98-26.9L82.98-26.9Q90.28-26.9 90.45-17.8L90.45-17.8 90.45 0 86.15 0 86.15-17.38Q86.15-20.26 85.13-21.67 84.1-23.07 81.66-23.07L81.66-23.07Q79.71-23.07 78.49-21.56 77.27-20.04 77.07-17.7L77.07-17.7 77.07 0 72.72 0 72.72-17.58Q72.65-23.07 68.26-23.07L68.26-23.07Q64.99-23.07 63.64-19.8L63.64-19.8 63.64 0 59.35 0 59.35-26.42ZM106.39 0.49L106.39 0.49Q101.46 0.49 98.82-2.45 96.18-5.4 96.14-11.08L96.14-11.08 96.14-14.28Q96.14-20.19 98.71-23.55 101.29-26.9 105.9-26.9L105.9-26.9Q110.54-26.9 112.83-23.95 115.13-21 115.18-14.75L115.18-14.75 115.18-11.91 100.43-11.91 100.43-11.3Q100.43-7.06 102.03-5.13 103.63-3.2 106.63-3.2L106.63-3.2Q108.54-3.2 109.99-3.92 111.44-4.64 112.71-6.2L112.71-6.2 114.96-3.47Q112.15 0.49 106.39 0.49ZM105.9-23.19L105.9-23.19Q103.22-23.19 101.92-21.35 100.63-19.51 100.46-15.63L100.46-15.63 110.86-15.63 110.86-16.21Q110.69-19.97 109.5-21.58 108.32-23.19 105.9-23.19ZM138.03 0L131.7-14.38 125.45-14.38 125.45 0 120.96 0 120.96-35.55 130.92-35.55Q136.15-35.55 138.83-32.82 141.52-30.1 141.52-24.85L141.52-24.85Q141.52-21.56 140.07-19.1 138.61-16.65 135.95-15.41L135.95-15.41 142.84-0.29 142.84 0 138.03 0ZM125.45-31.69L125.45-18.21 130.87-18.21Q133.68-18.21 135.35-20.02 137.03-21.83 137.03-24.85L137.03-24.85Q137.03-31.69 130.82-31.69L130.82-31.69 125.45-31.69ZM156.34 0.49L156.34 0.49Q151.4 0.49 148.77-2.45 146.13-5.4 146.08-11.08L146.08-11.08 146.08-14.28Q146.08-20.19 148.66-23.55 151.23-26.9 155.85-26.9L155.85-26.9Q160.49-26.9 162.78-23.95 165.08-21 165.12-14.75L165.12-14.75 165.12-11.91 150.38-11.91 150.38-11.3Q150.38-7.06 151.98-5.13 153.58-3.2 156.58-3.2L156.58-3.2Q158.48-3.2 159.94-3.92 161.39-4.64 162.66-6.2L162.66-6.2 164.9-3.47Q162.1 0.49 156.34 0.49ZM155.85-23.19L155.85-23.19Q153.16-23.19 151.87-21.35 150.57-19.51 150.4-15.63L150.4-15.63 160.8-15.63 160.8-16.21Q160.63-19.97 159.45-21.58 158.26-23.19 155.85-23.19ZM188.39 0L183.9 0Q183.51-0.85 183.33-2.88L183.33-2.88Q181.04 0.49 177.48 0.49L177.48 0.49Q173.89 0.49 171.87-1.53 169.86-3.54 169.86-7.2L169.86-7.2Q169.86-11.23 172.59-13.6 175.33-15.97 180.09-16.02L180.09-16.02 183.26-16.02 183.26-18.82Q183.26-21.19 182.21-22.19 181.16-23.19 179.01-23.19L179.01-23.19Q177.06-23.19 175.84-22.03 174.62-20.87 174.62-19.09L174.62-19.09 170.3-19.09Q170.3-21.12 171.49-22.96 172.69-24.8 174.72-25.85 176.74-26.9 179.23-26.9L179.23-26.9Q183.29-26.9 185.4-24.89 187.51-22.88 187.56-19.02L187.56-19.02 187.56-5.69Q187.58-2.64 188.39-0.39L188.39-0.39 188.39 0ZM178.13-3.44L178.13-3.44Q179.72-3.44 181.16-4.32 182.6-5.2 183.26-6.52L183.26-6.52 183.26-12.82 180.82-12.82Q177.74-12.77 175.96-11.44 174.18-10.11 174.18-7.71L174.18-7.71Q174.18-5.47 175.08-4.46 175.99-3.44 178.13-3.44ZM198.91-37.5L198.91 0 194.59 0 194.59-37.5 198.91-37.5ZM205.72-26.42L209.77-26.42 209.87-23.97Q212.28-26.9 216.24-26.9L216.24-26.9Q220.66-26.9 222.42-23.07L222.42-23.07Q224.91-26.9 229.35-26.9L229.35-26.9Q236.65-26.9 236.82-17.8L236.82-17.8 236.82 0 232.52 0 232.52-17.38Q232.52-20.26 231.5-21.67 230.47-23.07 228.03-23.07L228.03-23.07Q226.08-23.07 224.86-21.56 223.64-20.04 223.44-17.7L223.44-17.7 223.44 0 219.1 0 219.1-17.58Q219.02-23.07 214.63-23.07L214.63-23.07Q211.36-23.07 210.01-19.8L210.01-19.8 210.01 0 205.72 0 205.72-26.42Z" opacity="1" transform="matrix(1,0,0,1,0,0)" fill="#000000" class="undefined-text-0" data-fill-palette-color="primary" id="text-0"></path></svg></g></svg></g><g transform="matrix(1,0,0,1,0,35.87039887342833)"><svg viewBox="0 0 192 19.345005867560772" height="19.345005867560772" width="192"><g transform="matrix(1,0,0,1,0,0)"><svg width="192" viewBox="1.9500000476837158 -37 373.17999267578125 37.599998474121094" height="19.345005867560772" data-palette-color="#ddd623"><path d="M26.3 0L16.25 0Q13.3 0 11.93-1.65 10.55-3.3 10.55-5.9L10.55-5.9 10.55-22.4 1.95-22.4 1.95-25.8 8.35-25.8Q9.65-25.8 10.18-26.33 10.7-26.85 10.7-28.15L10.7-28.15 10.7-34.9 14.55-34.9 14.55-25.8 26.3-25.8 26.3-22.4 14.55-22.4 14.55-3.4 26.3-3.4 26.3 0ZM42.36 0L42.36-3.4 49.91-3.4 49.91-22.4 42.36-22.4 42.36-25.8 53.91-25.8 53.91-19.3 54.16-19.3Q54.96-22.35 57.19-24.08 59.41-25.8 62.86-25.8L62.86-25.8 66.46-25.8 66.46-21.8 61.61-21.8Q58.16-21.8 56.04-19.8 53.91-17.8 53.91-14.55L53.91-14.55 53.91-3.4 63.91-3.4 63.91 0 42.36 0ZM104.53 0L101.78 0Q99.43 0 98.43-1.2 97.43-2.4 97.18-4.2L97.18-4.2 96.93-4.2Q96.08-1.95 94.2-0.68 92.33 0.6 89.18 0.6L89.18 0.6Q85.13 0.6 82.73-1.5 80.33-3.6 80.33-7.25L80.33-7.25Q80.33-10.85 82.95-12.8 85.58-14.75 91.43-14.75L91.43-14.75 96.93-14.75 96.93-17.3Q96.93-20.15 95.33-21.58 93.73-23 90.78-23L90.78-23Q88.18-23 86.53-21.98 84.88-20.95 83.88-19.2L83.88-19.2 81.18-21.2Q81.68-22.2 82.53-23.15 83.38-24.1 84.63-24.83 85.88-25.55 87.48-25.98 89.08-26.4 91.03-26.4L91.03-26.4Q95.58-26.4 98.25-24.1 100.93-21.8 100.93-17.7L100.93-17.7 100.93-3.5 104.53-3.5 104.53 0ZM89.88-2.75L89.88-2.75Q91.43-2.75 92.7-3.13 93.98-3.5 94.93-4.13 95.88-4.75 96.4-5.63 96.93-6.5 96.93-7.5L96.93-7.5 96.93-11.75 91.43-11.75Q87.83-11.75 86.18-10.75 84.53-9.75 84.53-7.85L84.53-7.85 84.53-6.8Q84.53-4.8 85.95-3.78 87.38-2.75 89.88-2.75ZM133.09 0L127.99 0 118.74-25.8 122.79-25.8 126.49-15 130.49-3.35 130.69-3.35 134.69-15 138.39-25.8 142.34-25.8 133.09 0ZM169.51 0.6L169.51 0.6Q166.71 0.6 164.48-0.35 162.26-1.3 160.68-3.08 159.11-4.85 158.26-7.33 157.41-9.8 157.41-12.85L157.41-12.85Q157.41-15.95 158.28-18.45 159.16-20.95 160.71-22.73 162.26-24.5 164.43-25.45 166.61-26.4 169.26-26.4L169.26-26.4Q171.86-26.4 173.98-25.45 176.11-24.5 177.61-22.83 179.11-21.15 179.91-18.85 180.71-16.55 180.71-13.8L180.71-13.8 180.71-11.9 161.61-11.9 161.61-10.7Q161.61-9 162.16-7.55 162.71-6.1 163.73-5.05 164.76-4 166.23-3.43 167.71-2.85 169.51-2.85L169.51-2.85Q172.11-2.85 174.01-4.05 175.91-5.25 176.91-7.35L176.91-7.35 179.86-5.35Q178.71-2.75 176.03-1.07 173.36 0.6 169.51 0.6ZM169.26-23.1L169.26-23.1Q167.61-23.1 166.21-22.5 164.81-21.9 163.78-20.85 162.76-19.8 162.18-18.38 161.61-16.95 161.61-15.25L161.61-15.25 161.61-14.9 176.41-14.9 176.41-15.45Q176.41-17.15 175.88-18.55 175.36-19.95 174.43-20.98 173.51-22 172.18-22.55 170.86-23.1 169.26-23.1ZM196.57 0L196.57-3.4 205.57-3.4 205.57-33.6 196.57-33.6 196.57-37 209.57-37 209.57-3.4 218.57-3.4 218.57 0 196.57 0ZM278.5 0L274.5 0 274.5-25.8 278.5-25.8 278.5-21.6 278.7-21.6Q279.1-22.55 279.7-23.43 280.3-24.3 281.18-24.95 282.05-25.6 283.25-26 284.45-26.4 286.05-26.4L286.05-26.4Q290.1-26.4 292.55-23.83 295-21.25 295-16.55L295-16.55 295 0 291 0 291-15.85Q291-19.4 289.45-21.13 287.9-22.85 284.9-22.85L284.9-22.85Q283.7-22.85 282.55-22.55 281.4-22.25 280.5-21.65 279.6-21.05 279.05-20.1 278.5-19.15 278.5-17.9L278.5-17.9 278.5 0ZM323.12 0.6L323.12 0.6Q320.42 0.6 318.24-0.35 316.07-1.3 314.54-3.08 313.02-4.85 312.22-7.33 311.42-9.8 311.42-12.9L311.42-12.9Q311.42-15.95 312.22-18.45 313.02-20.95 314.54-22.73 316.07-24.5 318.24-25.45 320.42-26.4 323.12-26.4L323.12-26.4Q325.82-26.4 327.99-25.45 330.17-24.5 331.69-22.73 333.22-20.95 334.02-18.45 334.82-15.95 334.82-12.9L334.82-12.9Q334.82-9.8 334.02-7.33 333.22-4.85 331.69-3.08 330.17-1.3 327.99-0.35 325.82 0.6 323.12 0.6ZM323.12-2.85L323.12-2.85Q326.47-2.85 328.52-4.85 330.57-6.85 330.57-11.05L330.57-11.05 330.57-14.75Q330.57-18.95 328.52-20.95 326.47-22.95 323.12-22.95L323.12-22.95Q319.77-22.95 317.72-20.95 315.67-18.95 315.67-14.75L315.67-14.75 315.67-11.05Q315.67-6.85 317.72-4.85 319.77-2.85 323.12-2.85ZM352.08 0L348.13-25.8 351.68-25.8 354.63-3.5 355.08-3.5 359.48-25.8 363.88-25.8 368.28-3.5 368.73-3.5 371.68-25.8 375.13-25.8 371.18 0 365.98 0 361.88-21.6 361.48-21.6 357.28 0 352.08 0Z" opacity="1" transform="matrix(1,0,0,1,0,0)" fill="#000000" class="undefined-text-1" data-fill-palette-color="secondary" id="text-1"></path></svg></g></svg></g></svg></g></svg></g><g transform="matrix(1,0,0,1,45.381230370410535,0)"><svg viewBox="0 0 101.23753925917893 76.30768935204695" height="76.30768935204695" width="101.23753925917893"><g><svg xmlns="http://www.w3.org/2000/svg" viewBox="2.5095937252044678 5.826010227203369 26.990406036376953 20.343990325927734" x="0" y="0" height="76.30768935204695" width="101.23753925917893" class="icon-icon-0" data-fill-palette-color="accent" id="icon-0"><path d="M29.5 7.83a2 2 0 1 0-2.83 1.82l-2.5 3.54A17.63 17.63 0 0 0 18 11.29L16.83 9.65a2 2 0 1 0-1.66 0L14 11.29a17.91 17.91 0 0 0-6.18 1.9L5.33 9.65A2 2 0 1 0 4 9.76V25.67a0.5 0.5 0 0 0 0.5 0.5h23a0.5 0.5 0 0 0 0.5-0.5V9.76A2 2 0 0 0 29.5 7.83ZM27 19l-1-1.5L27 16Zm-3.41-5l-1.84 2.61-3-4.21A16.75 16.75 0 0 1 23.59 14ZM16 6.83a1 1 0 1 1-1 1A1 1 0 0 1 16 6.83Zm-2.79 5.59l-3 4.21L8.41 14A17 17 0 0 1 13.21 12.42ZM5 16l1 1.5L5 19ZM3.5 7.83a1 1 0 1 1 1 1A1 1 0 0 1 3.5 7.83ZM5 25.17V23.42H24.53a0.5 0.5 0 0 0 0.5-0.5 0.5 0.5 0 0 0-0.5-0.5H5V20.78l2-3a0.48 0.48 0 0 0 0-0.56l-2-3V10.91l4.84 6.88a0.53 0.53 0 0 0 0.82 0L16 10.2l5.34 7.59a0.53 0.53 0 0 0 0.82 0L27 10.91v3.31l-2 3a0.52 0.52 0 0 0 0 0.56l2 3v4.39ZM27.5 8.83a1 1 0 1 1 1-1A1 1 0 0 1 27.5 8.83ZM16.41 14.1a0.49 0.49 0 0 0-0.82 0l-2.13 3.12a0.52 0.52 0 0 0 0 0.56l2.13 3.12a0.49 0.49 0 0 0 0.82 0l2.12-3.12a0.48 0.48 0 0 0 0-0.56ZM16 19.73L14.48 17.5 16 15.27l1.52 2.23Z" fill="#000000" data-fill-palette-color="accent"></path></svg></g></svg></g><g></g></svg></g></svg></g></svg></g></svg></g><defs></defs></svg><rect width="320" height="360" fill="none" stroke="none" visibility="hidden"></rect></g></svg></g></svg>